<svg xmlns="http://www.w3.org/2000/svg" viewBox="0 0 41 41" fill="none">
  <defs>
    <linearGradient id="g" x1="0" y1="0" x2="41" y2="41" gradientUnits="userSpaceOnUse">
      <stop offset="0%" stop-color="#22D3EE"/>
      <stop offset="35%" stop-color="#3B82F6"/>
      <stop offset="65%" stop-color="#6366F1"/>
      <stop offset="100%" stop-color="#8B5CF6"/>
    </linearGradient>
  </defs>
  <path d="M20.5 3.5
    a6.5 6.5 0 0 1 6.5 6.5v7.5h3a4 4 0 0 1 0 8h-3v5a4 4 0 0 1-4 4h-1v3a4 4 0 0 1-8 0v-3h-1a4 4 0 0 1-4-4v-5h-3a4 4 0 0 1 0-8h3V10a6.5 6.5 0 0 1 6.5-6.5z
    M16 10v10.5a2 2 0 0 0 2 2h5a2 2 0 0 0 2-2V10a4.5 4.5 0 0 0-9 0z
    M9 18.5a2 2 0 0 0 0 4h5v-4z
    M27 18.5v4h5a2 2 0 0 0 0-4z
    M16 24.5v5.5a2 2 0 0 0 2 2h5a2 2 0 0 0 2-2v-5.5z
    M18 34v3a2 2 0 0 0 4 0v-3z"
    fill="url(#g)"
    fill-rule="evenodd"
  />
</svg>