<svg xmlns="http://www.w3.org/2000/svg" viewBox="0 0 512 512">
  <defs>
    <linearGradient id="grad-cyan-blue" x1="0" y1="0" x2="1" y2="1">
      <stop offset="0%" stop-color="#22D3EE"/>
      <stop offset="100%" stop-color="#3B82F6"/>
    </linearGradient>
    <linearGradient id="grad-blue-indigo" x1="0" y1="0" x2="1" y2="1">
      <stop offset="0%" stop-color="#3B82F6"/>
      <stop offset="100%" stop-color="#6366F1"/>
    </linearGradient>
    <linearGradient id="grad-indigo-purple" x1="0" y1="0" x2="1" y2="1">
      <stop offset="0%" stop-color="#6366F1"/>
      <stop offset="100%" stop-color="#8B5CF6"/>
    </linearGradient>
    <linearGradient id="grad-purple-violet" x1="1" y1="0" x2="0" y2="1">
      <stop offset="0%" stop-color="#8B5CF6"/>
      <stop offset="100%" stop-color="#7C3AED"/>
    </linearGradient>
    <linearGradient id="grad-violet-cyan" x1="1" y1="1" x2="0" y2="0">
      <stop offset="0%" stop-color="#7C3AED"/>
      <stop offset="100%" stop-color="#06B6D4"/>
    </linearGradient>
    <linearGradient id="grad-full" x1="0" y1="0" x2="1" y2="1">
      <stop offset="0%" stop-color="#06B6D4"/>
      <stop offset="25%" stop-color="#3B82F6"/>
      <stop offset="50%" stop-color="#6366F1"/>
      <stop offset="75%" stop-color="#8B5CF6"/>
      <stop offset="100%" stop-color="#7C3AED"/>
    </linearGradient>
  </defs>
  <g transform="translate(256,256)">
    <!-- Petal 1 (top, cyan) -->
    <path d="M0,-180 C50,-180 110,-140 130,-90 C150,-40 120,10 60,35 C60,35 30,-10 20,-55 C10,-100 0,-140 0,-180Z" fill="url(#grad-cyan-blue)"/>
    <path d="M0,-180 C-50,-180 -110,-140 -130,-90 C-150,-40 -120,10 -60,35 C-60,35 -30,-10 -20,-55 C-10,-100 0,-140 0,-180Z" fill="url(#grad-cyan-blue)" opacity="0.8"/>

    <!-- Petal 2 (top-right, blue) -->
    <path d="M156,-90 C181,-65 196,-5 181,45 C166,95 126,120 72,115 C72,115 88,72 105,42 C122,12 140,-48 156,-90Z" fill="url(#grad-blue-indigo)"/>
    <path d="M156,-90 C136,-115 85,-148 40,-140 C-5,-132 -28,-95 -18,-48 C-18,-48 22,-52 52,-58 C82,-64 128,-78 156,-90Z" fill="url(#grad-cyan-blue)" opacity="0.75"/>

    <!-- Petal 3 (bottom-right, indigo) -->
    <path d="M156,90 C136,115 85,148 40,140 C-5,132 -28,95 -18,48 C-18,48 22,52 52,58 C82,64 128,78 156,90Z" fill="url(#grad-indigo-purple)"/>
    <path d="M156,90 C181,65 196,5 181,-45 C166,-95 126,-120 72,-115 C72,-115 88,-72 105,-42 C122,-12 140,48 156,90Z" fill="url(#grad-blue-indigo)" opacity="0.8"/>

    <!-- Petal 4 (bottom, purple) -->
    <path d="M0,180 C-50,180 -110,140 -130,90 C-150,40 -120,-10 -60,-35 C-60,-35 -30,10 -20,55 C-10,100 0,140 0,180Z" fill="url(#grad-purple-violet)"/>
    <path d="M0,180 C50,180 110,140 130,90 C150,40 120,-10 60,-35 C60,-35 30,10 20,55 C10,100 0,140 0,180Z" fill="url(#grad-indigo-purple)" opacity="0.8"/>

    <!-- Petal 5 (bottom-left, violet) -->
    <path d="M-156,90 C-181,65 -196,5 -181,-45 C-166,-95 -126,-120 -72,-115 C-72,-115 -88,-72 -105,-42 C-122,-12 -140,48 -156,90Z" fill="url(#grad-violet-cyan)"/>
    <path d="M-156,90 C-136,115 -85,148 -40,140 C5,132 28,95 18,48 C18,48 -22,52 -52,58 C-82,64 -128,78 -156,90Z" fill="url(#grad-purple-violet)" opacity="0.75"/>

    <!-- Petal 6 (top-left, cyan-violet) -->
    <path d="M-156,-90 C-136,-115 -85,-148 -40,-140 C5,-132 28,-95 18,-48 C18,-48 -22,-52 -52,-58 C-82,-64 -128,-78 -156,-90Z" fill="url(#grad-violet-cyan)" opacity="0.8"/>
    <path d="M-156,-90 C-181,-65 -196,-5 -181,45 C-166,95 -126,120 -72,115 C-72,115 -88,72 -105,42 C-122,12 -140,-48 -156,-90Z" fill="url(#grad-full)"/>
  </g>
</svg>